<mxfile host="app.diagrams.net" agent="Mozilla/5.0 (Windows NT 10.0; Win64; x64) AppleWebKit/537.36 (KHTML, like Gecko) Chrome/134.0.0.0 Safari/537.36" version="26.1.1">
  <diagram name="Page-1" id="c7558073-3199-34d8-9f00-42111426c3f3">
    <mxGraphModel dx="1434" dy="738" grid="1" gridSize="10" guides="1" tooltips="1" connect="1" arrows="1" fold="1" page="1" pageScale="1" pageWidth="826" pageHeight="1169" background="none" math="0" shadow="0">
      <root>
        <mxCell id="0" />
        <mxCell id="1" parent="0" />
        <mxCell id="4" value="Order Cancel&#xa;(ExecType&lt;150&gt;=4 &amp;&amp; OrdStatus &lt;39&gt;=4)    " style="whiteSpace=wrap;align=center;verticalAlign=middle;fontStyle=1;strokeWidth=3;fillColor=#FFFFCC" parent="1" vertex="1">
          <mxGeometry x="280" y="40" width="200" height="80" as="geometry" />
        </mxCell>
        <mxCell id="37" value="" style="edgeStyle=none;noEdgeStyle=1;strokeColor=#990000;strokeWidth=2;" parent="1" edge="1">
          <mxGeometry width="100" height="100" relative="1" as="geometry">
            <mxPoint x="380" y="120" as="sourcePoint" />
            <mxPoint x="379.5" y="240" as="targetPoint" />
          </mxGeometry>
        </mxCell>
        <mxCell id="rh4mJw4lm3L261S2mCym-98" value="Unsolicited Order" style="swimlane;whiteSpace=wrap;html=1;fillColor=#e1d5e7;strokeColor=#9673a6;" vertex="1" parent="1">
          <mxGeometry x="40" y="600" width="240" height="160" as="geometry" />
        </mxCell>
        <mxCell id="rh4mJw4lm3L261S2mCym-103" value="&lt;ol&gt;&lt;li&gt;Update Status of actual Order to &lt;b&gt;Pending Update&lt;/b&gt;&lt;/li&gt;&lt;li&gt;Create new Unsolicited Order with status &lt;b&gt;Pending Cancelled&lt;/b&gt;&lt;/li&gt;&lt;li&gt;Link actual order to newly created order as associated order&lt;/li&gt;&lt;/ol&gt;" style="text;html=1;align=left;verticalAlign=middle;whiteSpace=wrap;rounded=0;fillColor=#f5f5f5;fontColor=#333333;strokeColor=none;" vertex="1" parent="rh4mJw4lm3L261S2mCym-98">
          <mxGeometry y="20" width="240" height="140" as="geometry" />
        </mxCell>
        <mxCell id="rh4mJw4lm3L261S2mCym-100" value="NO" style="edgeStyle=orthogonalEdgeStyle;rounded=0;orthogonalLoop=1;jettySize=auto;html=1;fillColor=#f0a30a;strokeColor=#BD7000;strokeWidth=2;" edge="1" parent="1" source="rh4mJw4lm3L261S2mCym-99" target="rh4mJw4lm3L261S2mCym-101">
          <mxGeometry relative="1" as="geometry">
            <mxPoint x="560" y="300" as="targetPoint" />
            <Array as="points">
              <mxPoint x="450" y="300" />
              <mxPoint x="450" y="300" />
            </Array>
          </mxGeometry>
        </mxCell>
        <mxCell id="rh4mJw4lm3L261S2mCym-99" value="&lt;div&gt;Is&lt;/div&gt;Actual Order&amp;nbsp;&lt;div&gt;present?&amp;nbsp;&lt;/div&gt;" style="rhombus;whiteSpace=wrap;html=1;fillColor=#dae8fc;strokeColor=#6c8ebf;" vertex="1" parent="1">
          <mxGeometry x="320" y="240" width="120" height="120" as="geometry" />
        </mxCell>
        <mxCell id="rh4mJw4lm3L261S2mCym-101" value="Reject/Ignore Drop copy message" style="rounded=1;whiteSpace=wrap;html=1;fillColor=#fff2cc;strokeColor=default;perimeterSpacing=1;gradientColor=none;" vertex="1" parent="1">
          <mxGeometry x="500" y="270" width="120" height="60" as="geometry" />
        </mxCell>
        <mxCell id="rh4mJw4lm3L261S2mCym-102" value="YES&lt;div&gt;&lt;br&gt;&lt;/div&gt;" style="edgeStyle=orthogonalEdgeStyle;rounded=0;orthogonalLoop=1;jettySize=auto;html=1;fillColor=#f0a30a;strokeColor=#BD7000;strokeWidth=2;" edge="1" parent="1" source="rh4mJw4lm3L261S2mCym-99" target="rh4mJw4lm3L261S2mCym-104">
          <mxGeometry relative="1" as="geometry">
            <mxPoint x="379" y="430" as="targetPoint" />
          </mxGeometry>
        </mxCell>
        <mxCell id="rh4mJw4lm3L261S2mCym-104" value="Is&amp;nbsp;&lt;div&gt;Actual Order&amp;nbsp;&lt;div&gt;status is&lt;/div&gt;&lt;div&gt;&lt;b&gt;Accepted?&lt;/b&gt;&lt;/div&gt;&lt;/div&gt;" style="rhombus;whiteSpace=wrap;html=1;fillColor=#dae8fc;strokeColor=#6c8ebf;" vertex="1" parent="1">
          <mxGeometry x="320" y="450" width="120" height="100" as="geometry" />
        </mxCell>
        <mxCell id="rh4mJw4lm3L261S2mCym-105" value="NO&lt;div&gt;&lt;br&gt;&lt;/div&gt;" style="edgeStyle=orthogonalEdgeStyle;rounded=0;orthogonalLoop=1;jettySize=auto;html=1;exitX=0;exitY=0.5;exitDx=0;exitDy=0;entryX=0.5;entryY=0;entryDx=0;entryDy=0;fillColor=#f0a30a;strokeColor=#BD7000;strokeWidth=2;" edge="1" parent="1" source="rh4mJw4lm3L261S2mCym-104" target="rh4mJw4lm3L261S2mCym-98">
          <mxGeometry relative="1" as="geometry">
            <mxPoint x="379" y="610" as="targetPoint" />
          </mxGeometry>
        </mxCell>
        <mxCell id="rh4mJw4lm3L261S2mCym-111" value="Unsolicited Order" style="swimlane;whiteSpace=wrap;html=1;fillColor=#e1d5e7;strokeColor=#9673a6;" vertex="1" parent="1">
          <mxGeometry x="40" y="920" width="240" height="160" as="geometry" />
        </mxCell>
        <mxCell id="rh4mJw4lm3L261S2mCym-112" value="&lt;ol&gt;&lt;li&gt;Update Status of actual Order to &lt;b&gt;Cancelled&lt;/b&gt;&lt;/li&gt;&lt;li&gt;Update new Unsolicited Order with status &lt;b&gt;Cancelled Confirmed&lt;/b&gt;&lt;/li&gt;&lt;/ol&gt;" style="text;html=1;align=left;verticalAlign=middle;whiteSpace=wrap;rounded=0;fillColor=#f5f5f5;fontColor=#333333;strokeColor=#666666;" vertex="1" parent="rh4mJw4lm3L261S2mCym-111">
          <mxGeometry y="20" width="240" height="140" as="geometry" />
        </mxCell>
        <mxCell id="rh4mJw4lm3L261S2mCym-113" value="[User Action: &lt;b&gt;Cancel Confirm]&lt;/b&gt;" style="endArrow=classic;html=1;rounded=0;exitX=0.5;exitY=1;exitDx=0;exitDy=0;entryX=0.5;entryY=0;entryDx=0;entryDy=0;fillColor=#f0a30a;strokeColor=#BD7000;strokeWidth=2;" edge="1" parent="1" source="rh4mJw4lm3L261S2mCym-98" target="rh4mJw4lm3L261S2mCym-111">
          <mxGeometry relative="1" as="geometry">
            <mxPoint x="520" y="870" as="sourcePoint" />
            <mxPoint x="620" y="870" as="targetPoint" />
          </mxGeometry>
        </mxCell>
        <mxCell id="rh4mJw4lm3L261S2mCym-115" value="Unsolicited Order" style="swimlane;whiteSpace=wrap;html=1;fillColor=#e1d5e7;strokeColor=#9673a6;" vertex="1" parent="1">
          <mxGeometry x="520" y="600" width="240" height="160" as="geometry" />
        </mxCell>
        <mxCell id="rh4mJw4lm3L261S2mCym-116" value="&lt;ol&gt;&lt;li&gt;Actual Order is in &lt;b&gt;Accepted &lt;/b&gt;status&lt;/li&gt;&lt;li&gt;Actual Order also has an associated &lt;b&gt;Global(Block) Order&lt;/b&gt; with it.&lt;/li&gt;&lt;li&gt;Create new Unsolicited Order with status &lt;b&gt;Pending Cancelled&lt;/b&gt;&lt;/li&gt;&lt;li&gt;Link actual order to newly created order as associated order&lt;/li&gt;&lt;/ol&gt;" style="text;html=1;align=left;verticalAlign=middle;whiteSpace=wrap;rounded=0;fillColor=#f5f5f5;fontColor=#333333;strokeColor=none;" vertex="1" parent="rh4mJw4lm3L261S2mCym-115">
          <mxGeometry y="20" width="240" height="140" as="geometry" />
        </mxCell>
        <mxCell id="rh4mJw4lm3L261S2mCym-117" value="&lt;div&gt;YES&lt;/div&gt;" style="edgeStyle=orthogonalEdgeStyle;rounded=0;orthogonalLoop=1;jettySize=auto;html=1;exitX=1;exitY=0.5;exitDx=0;exitDy=0;entryX=0.5;entryY=0;entryDx=0;entryDy=0;fillColor=#e3c800;strokeColor=#B09500;curved=0;strokeWidth=2;" edge="1" parent="1" target="rh4mJw4lm3L261S2mCym-115" source="rh4mJw4lm3L261S2mCym-104">
          <mxGeometry relative="1" as="geometry">
            <mxPoint x="800" y="500" as="sourcePoint" />
            <mxPoint x="859" y="610" as="targetPoint" />
          </mxGeometry>
        </mxCell>
      </root>
    </mxGraphModel>
  </diagram>
</mxfile>
